<svg xmlns="http://www.w3.org/2000/svg" xmlns:xlink="http://www.w3.org/1999/xlink" id="processonSvg1000" viewBox="159.64321383015402 48.0 559.078260199138 484.0" width="559.078260199138" height="484.0"><defs id="ProcessOnDefs1001"/><g id="ProcessOnG1002"><path id="ProcessOnPath1003" d="M159.64321383015402 48.0H718.721474029292V532.0H159.64321383015408V48.0Z" fill="none"/><g id="ProcessOnG1004"><g id="ProcessOnG1005" transform="matrix(1.0,0.0,0.0,1.0,373.0,272.0)" opacity="1.0"><path id="ProcessOnPath1006" d="M0.0 64.0C0.0 -21.333333333333332 143.0 -21.333333333333332 143.0 64.0C143.0 149.33333333333334 0.0 149.33333333333334 0.0 64.0Z" stroke="#323232" stroke-width="2.0" stroke-dasharray="none" opacity="1.0" fill="#ffffff"/><g id="ProcessOnG1007" transform="matrix(1.0,0.0,0.0,1.0,10.0,31.5)"><text id="ProcessOnText1008" fill="#000000" font-size="13" x="60.5" y="13.325" font-family="微软雅黑" font-weight="bold" font-style="normal" text-decoration="none" family="微软雅黑" text-anchor="middle" size="13"></text><text id="ProcessOnText1009" fill="#000000" font-size="13" x="60.5" y="29.575" font-family="微软雅黑" font-weight="bold" font-style="normal" text-decoration="none" family="微软雅黑" text-anchor="middle" size="13">Low calorie </text><text id="ProcessOnText1010" fill="#000000" font-size="13" x="60.5" y="45.825" font-family="微软雅黑" font-weight="bold" font-style="normal" text-decoration="none" family="微软雅黑" text-anchor="middle" size="13">Restricted Dietary </text><text id="ProcessOnText1011" fill="#000000" font-size="13" x="60.5" y="62.075" font-family="微软雅黑" font-weight="bold" font-style="normal" text-decoration="none" family="微软雅黑" text-anchor="middle" size="13">Intervention</text></g></g><g id="ProcessOnG1012" transform="matrix(1.0,0.0,0.0,1.0,382.0,68.0)" opacity="1.0"><path id="ProcessOnPath1013" d="M0.0 59.0C0.0 -19.666666666666668 120.0 -19.666666666666668 120.0 59.0C120.0 137.66666666666666 0.0 137.66666666666666 0.0 59.0Z" stroke="#323232" stroke-width="2.0" stroke-dasharray="none" opacity="1.0" fill="#ffffff"/><g id="ProcessOnG1014" transform="matrix(1.0,0.0,0.0,1.0,10.0,39.0)"><text id="ProcessOnText1015" fill="#000000" font-size="16" x="49.0" y="16.4" font-family="微软雅黑" font-weight="bold" font-style="normal" text-decoration="none" family="微软雅黑" text-anchor="middle" size="16">Effects of </text><text id="ProcessOnText1016" fill="#000000" font-size="16" x="49.0" y="36.4" font-family="微软雅黑" font-weight="bold" font-style="normal" text-decoration="none" family="微软雅黑" text-anchor="middle" size="16">BMI</text></g></g><g id="ProcessOnG1017" transform="matrix(1.0,0.0,0.0,1.0,189.0,383.0)" opacity="1.0"><path id="ProcessOnPath1018" d="M0.0 59.0C0.0 -19.666666666666668 120.0 -19.666666666666668 120.0 59.0C120.0 137.66666666666666 0.0 137.66666666666666 0.0 59.0Z" stroke="#323232" stroke-width="2.0" stroke-dasharray="none" opacity="1.0" fill="#ffffff"/><g id="ProcessOnG1019" transform="matrix(1.0,0.0,0.0,1.0,10.0,39.0)"><text id="ProcessOnText1020" fill="#000000" font-size="16" x="49.0" y="16.4" font-family="微软雅黑" font-weight="bold" font-style="normal" text-decoration="none" family="微软雅黑" text-anchor="middle" size="16">Effects of</text><text id="ProcessOnText1021" fill="#000000" font-size="16" x="49.0" y="36.4" font-family="微软雅黑" font-weight="bold" font-style="normal" text-decoration="none" family="微软雅黑" text-anchor="middle" size="16">Amino acids</text></g></g><g id="ProcessOnG1022" transform="matrix(1.0,0.0,0.0,1.0,578.721474029292,394.0)" opacity="1.0"><path id="ProcessOnPath1023" d="M0.0 59.0C0.0 -19.666666666666668 120.0 -19.666666666666668 120.0 59.0C120.0 137.66666666666666 0.0 137.66666666666666 0.0 59.0Z" stroke="#323232" stroke-width="2.0" stroke-dasharray="none" opacity="1.0" fill="#ffffff"/><g id="ProcessOnG1024" transform="matrix(1.0,0.0,0.0,1.0,10.0,29.0)"><text id="ProcessOnText1025" fill="#000000" font-size="16" x="49.0" y="16.4" font-family="微软雅黑" font-weight="bold" font-style="normal" text-decoration="none" family="微软雅黑" text-anchor="middle" size="16">Effects of </text><text id="ProcessOnText1026" fill="#000000" font-size="16" x="49.0" y="36.4" font-family="微软雅黑" font-weight="bold" font-style="normal" text-decoration="none" family="微软雅黑" text-anchor="middle" size="16">gut </text><text id="ProcessOnText1027" fill="#000000" font-size="16" x="49.0" y="56.4" font-family="微软雅黑" font-weight="bold" font-style="normal" text-decoration="none" family="微软雅黑" text-anchor="middle" size="16">microbiota</text></g></g><g id="ProcessOnG1028" transform="matrix(1.0,0.0,0.0,1.0,405.5,202.0)" opacity="1.0"><path id="ProcessOnPath1029" d="M36.5 0.0L73.0 27.900000000000002L48.910000000000004 27.900000000000002L48.910000000000004 62.0L24.09 62.0L24.09 27.900000000000002L0.0 27.900000000000002L36.5 0.0Z" stroke="#323232" stroke-width="2.0" stroke-dasharray="none" opacity="1.0" fill="#ffffff"/><g id="ProcessOnG1030" transform="matrix(1.0,0.0,0.0,1.0,-14.600000000000001,18.475)"><text id="ProcessOnText1031" fill="#000000" font-size="25" x="50.099999999999994" y="25.625" font-family="微软雅黑" font-weight="bold" font-style="normal" text-decoration="none" family="微软雅黑" text-anchor="middle" size="25">1</text></g></g><g id="ProcessOnG1032" transform="matrix(-0.5000000000000004,-0.8660254037844385,0.8660254037844385,-0.5000000000000004,336.9032124826824,436.109927238132)" opacity="1.0"><path id="ProcessOnPath1033" d="M36.5 0.0L73.0 27.900000000000002L48.910000000000004 27.900000000000002L48.910000000000004 62.0L24.09 62.0L24.09 27.900000000000002L0.0 27.900000000000002L36.5 0.0Z" stroke="#323232" stroke-width="2.0" stroke-dasharray="none" opacity="1.0" fill="#ffffff"/><g id="ProcessOnG1034" transform="matrix(1.0,0.0,0.0,1.0,-14.600000000000001,18.475)"><text id="ProcessOnText1035" fill="#000000" font-size="25" x="50.099999999999994" y="25.625" font-family="微软雅黑" font-weight="bold" font-style="normal" text-decoration="none" family="微软雅黑" text-anchor="middle" size="25">2</text></g></g><g id="ProcessOnG1036" transform="matrix(-0.4999999999999998,0.8660254037844387,-0.8660254037844387,-0.4999999999999998,583.5967875173176,381.890072761868)" opacity="1.0"><path id="ProcessOnPath1037" d="M36.5 0.0L73.0 27.900000000000002L48.910000000000004 27.900000000000002L48.910000000000004 62.0L24.09 62.0L24.09 27.900000000000002L0.0 27.900000000000002L36.5 0.0Z" stroke="#323232" stroke-width="2.0" stroke-dasharray="none" opacity="1.0" fill="#ffffff"/><g id="ProcessOnG1038" transform="matrix(1.0,0.0,0.0,1.0,-14.600000000000001,18.475)"><text id="ProcessOnText1039" fill="#000000" font-size="25" x="50.099999999999994" y="25.625" font-family="微软雅黑" font-weight="bold" font-style="normal" text-decoration="none" family="微软雅黑" text-anchor="middle" size="25">3</text></g></g><g id="ProcessOnG1040" transform="matrix(0.6427876096865393,-0.7660444431189781,0.7660444431189781,0.6427876096865393,205.88736805272848,355.69790385220364)" opacity="1.0"><path id="ProcessOnPath1041" d="M0.0 25.5681815728708L25.5681815728708 0.0L25.5681815728708 16.874999838094727L231.0327588195496 16.874999838094727L231.0327588195496 0.0L256.6009403924204 25.5681815728708L231.0327588195496 51.1363631457416L231.0327588195496 34.261363307646874L25.5681815728708 34.261363307646874L25.5681815728708 51.1363631457416L0.0 25.5681815728708Z" stroke="#323232" stroke-width="2.0" stroke-dasharray="none" opacity="1.0" fill="#ff9999"/><g id="ProcessOnG1042" transform="matrix(1.0,0.0,0.0,1.0,0.0,16.1931815728708)"><text id="ProcessOnText1043" fill="#000000" font-size="15" x="127.3004701962102" y="15.375" font-family="微软雅黑" font-weight="bold" font-style="normal" text-decoration="none" family="微软雅黑" text-anchor="middle" size="15">Association</text></g></g><g id="ProcessOnG1044" transform="matrix(0.573576436351046,0.8191520442889918,-0.8191520442889918,0.573576436351046,519.6050168622497,167.49222072242412)" opacity="1.0"><path id="ProcessOnPath1045" d="M0.0 27.226335558355387L27.226335558355387 0.0L27.226335558355387 17.969381468514555L205.34072034508569 17.969381468514555L205.34072034508569 0.0L232.5670559034411 27.226335558355387L205.34072034508569 54.452671116710775L205.34072034508569 36.48328964819622L27.226335558355387 36.48328964819622L27.226335558355387 54.452671116710775L0.0 27.226335558355387Z" stroke="#323232" stroke-width="2.0" stroke-dasharray="none" opacity="1.0" fill="#ffcc99"/><g id="ProcessOnG1046" transform="matrix(1.0,0.0,0.0,1.0,0.0,17.851335558355387)"><text id="ProcessOnText1047" fill="#000000" font-size="15" x="115.28352795172054" y="15.375" font-family="微软雅黑" font-weight="bold" font-style="normal" text-decoration="none" family="微软雅黑" text-anchor="middle" size="15">Association</text></g></g><g id="ProcessOnG1048" transform="matrix(1.0,0.0,0.0,1.0,315.0,435.0)" opacity="1.0"><path id="ProcessOnPath1049" d="M0.0 27.5L27.5 0.0L27.5 18.150000000000002L226.5 18.150000000000002L226.5 0.0L254.0 27.5L226.5 55.0L226.5 36.85L27.5 36.85L27.5 55.0L0.0 27.5Z" stroke="#323232" stroke-width="2.0" stroke-dasharray="none" opacity="1.0" fill="#ffff33"/><g id="ProcessOnG1050" transform="matrix(1.0,0.0,0.0,1.0,0.0,18.125000000000004)"><text id="ProcessOnText1051" fill="#000000" font-size="15" x="126.0" y="15.375" font-family="微软雅黑" font-weight="bold" font-style="normal" text-decoration="none" family="微软雅黑" text-anchor="middle" size="15">Association</text></g></g><g id="ProcessOnG1052" transform="matrix(0.6427876096865393,-0.7660444431189781,0.7660444431189781,0.6427876096865393,221.2561023626973,304.42780325578747)" opacity="1.0"><path id="ProcessOnPath1053" d="M0.0 0.0L160.0 0.0L160.0 40.0L0.0 40.0Z" stroke="none" stroke-width="0.0" stroke-dasharray="none" opacity="1.0" fill="none"/><g id="ProcessOnG1054" transform="matrix(1.0,0.0,0.0,1.0,0.0,6.25)"><text id="ProcessOnText1055" fill="#000000" font-size="22" x="79.0" y="22.55" font-family="微软雅黑" font-weight="bold" font-style="normal" text-decoration="none" family="微软雅黑" text-anchor="middle" size="22">4</text></g></g><g id="ProcessOnG1056" transform="matrix(0.5735764363510464,0.8191520442889916,-0.8191520442889916,0.5735764363510464,554.4969259776962,174.99630772985975)" opacity="1.0"><path id="ProcessOnPath1057" d="M0.0 0.0L160.0 0.0L160.0 40.0L0.0 40.0Z" stroke="none" stroke-width="0.0" stroke-dasharray="none" opacity="1.0" fill="none"/><g id="ProcessOnG1058" transform="matrix(1.0,0.0,0.0,1.0,0.0,6.25)"><text id="ProcessOnText1059" fill="#000000" font-size="22" x="79.0" y="22.55" font-family="微软雅黑" font-weight="bold" font-style="normal" text-decoration="none" family="微软雅黑" text-anchor="middle" size="22">5</text></g></g><g id="ProcessOnG1060" transform="matrix(1.0,0.0,0.0,1.0,362.0,472.0)" opacity="1.0"><path id="ProcessOnPath1061" d="M0.0 0.0L160.0 0.0L160.0 40.0L0.0 40.0Z" stroke="none" stroke-width="0.0" stroke-dasharray="none" opacity="1.0" fill="none"/><g id="ProcessOnG1062" transform="matrix(1.0,0.0,0.0,1.0,0.0,6.25)"><text id="ProcessOnText1063" fill="#000000" font-size="22" x="79.0" y="22.55" font-family="微软雅黑" font-weight="bold" font-style="normal" text-decoration="none" family="微软雅黑" text-anchor="middle" size="22">6</text></g></g></g></g></svg>