<svg xmlns="http://www.w3.org/2000/svg" xmlns:xlink="http://www.w3.org/1999/xlink" id="processonSvg1000" viewBox="49.0 52.0 978.2425173053432 661.0" width="978.2425173053432" height="661.0"><defs id="ProcessOnDefs1001"><marker id="ProcessOnMarker1070" markerUnits="userSpaceOnUse" orient="auto" markerWidth="14.118033988749895" markerHeight="9.174454630060925" viewBox="-0.5 -0.6881909602355868 14.118033988749895 9.174454630060925" refX="-0.5" refY="3.8990363547948754"><path id="ProcessOnPath1071" d="M12.0 3.8990363547948754L0.0 7.798072709589751V0.0Z" stroke="#323232" stroke-width="1.0" fill="#323232" transform="matrix(1.0,0.0,0.0,1.0,0.0,0.0)"/></marker><marker id="ProcessOnMarker1089" markerUnits="userSpaceOnUse" orient="auto" markerWidth="14.118033988749895" markerHeight="9.174454630060925" viewBox="-0.5 -0.6881909602355868 14.118033988749895 9.174454630060925" refX="-0.5" refY="3.8990363547948754"><path id="ProcessOnPath1090" d="M12.0 3.8990363547948754L0.0 7.798072709589751V0.0Z" stroke="#323232" stroke-width="1.0" fill="#323232" transform="matrix(1.0,0.0,0.0,1.0,0.0,0.0)"/></marker><marker id="ProcessOnMarker1108" markerUnits="userSpaceOnUse" orient="auto" markerWidth="14.118033988749895" markerHeight="9.174454630060925" viewBox="-0.5 -0.6881909602355868 14.118033988749895 9.174454630060925" refX="-0.5" refY="3.8990363547948754"><path id="ProcessOnPath1109" d="M12.0 3.8990363547948754L0.0 7.798072709589751V0.0Z" stroke="#323232" stroke-width="1.0" fill="#323232" transform="matrix(1.0,0.0,0.0,1.0,0.0,0.0)"/></marker><marker id="ProcessOnMarker1121" markerUnits="userSpaceOnUse" orient="auto" markerWidth="14.118033988749895" markerHeight="9.174454630060925" viewBox="-0.5 -0.6881909602355868 14.118033988749895 9.174454630060925" refX="13.618033988749895" refY="3.8990363547948754"><path id="ProcessOnPath1122" d="M12.0 3.8990363547948754L0.0 7.798072709589751V0.0Z" stroke="#323232" stroke-width="1.0" fill="#323232" transform="matrix(-1.0,1.2246467991473532E-16,-1.2246467991473532E-16,-1.0,13.118033988749897,7.798072709589751)"/></marker><marker id="ProcessOnMarker1127" markerUnits="userSpaceOnUse" orient="auto" markerWidth="14.118033988749895" markerHeight="9.174454630060925" viewBox="-0.5 -0.6881909602355868 14.118033988749895 9.174454630060925" refX="-0.5" refY="3.8990363547948754"><path id="ProcessOnPath1128" d="M12.0 3.8990363547948754L0.0 7.798072709589751V0.0Z" stroke="#171717" stroke-width="1.0" fill="#171717" transform="matrix(1.0,0.0,0.0,1.0,0.0,0.0)"/></marker><marker id="ProcessOnMarker1133" markerUnits="userSpaceOnUse" orient="auto" markerWidth="14.118033988749895" markerHeight="9.174454630060925" viewBox="-0.5 -0.6881909602355868 14.118033988749895 9.174454630060925" refX="-0.5" refY="3.8990363547948754"><path id="ProcessOnPath1134" d="M12.0 3.8990363547948754L0.0 7.798072709589751V0.0Z" stroke="#323232" stroke-width="1.0" fill="#323232" transform="matrix(1.0,0.0,0.0,1.0,0.0,0.0)"/></marker><marker id="ProcessOnMarker1137" markerUnits="userSpaceOnUse" orient="auto" markerWidth="14.118033988749895" markerHeight="9.174454630060925" viewBox="-0.5 -0.6881909602355868 14.118033988749895 9.174454630060925" refX="-0.5" refY="3.8990363547948754"><path id="ProcessOnPath1138" d="M12.0 3.8990363547948754L0.0 7.798072709589751V0.0Z" stroke="#323232" stroke-width="1.0" fill="#323232" transform="matrix(1.0,0.0,0.0,1.0,0.0,0.0)"/></marker><marker id="ProcessOnMarker1141" markerUnits="userSpaceOnUse" orient="auto" markerWidth="14.118033988749895" markerHeight="9.174454630060925" viewBox="-0.5 -0.6881909602355868 14.118033988749895 9.174454630060925" refX="-0.5" refY="3.8990363547948754"><path id="ProcessOnPath1142" d="M12.0 3.8990363547948754L0.0 7.798072709589751V0.0Z" stroke="#323232" stroke-width="1.0" fill="#323232" transform="matrix(1.0,0.0,0.0,1.0,0.0,0.0)"/></marker><marker id="ProcessOnMarker1149" markerUnits="userSpaceOnUse" orient="auto" markerWidth="14.118033988749895" markerHeight="9.174454630060925" viewBox="-0.5 -0.6881909602355868 14.118033988749895 9.174454630060925" refX="-0.5" refY="3.8990363547948754"><path id="ProcessOnPath1150" d="M12.0 3.8990363547948754L0.0 7.798072709589751V0.0Z" stroke="#171717" stroke-width="1.0" fill="#171717" transform="matrix(1.0,0.0,0.0,1.0,0.0,0.0)"/></marker></defs><g id="ProcessOnG1002"><path id="ProcessOnPath1003" d="M49.0 52.0H1027.2425173053432V713.0H49.0V52.0Z" fill="none"/><g id="ProcessOnG1004"><g id="ProcessOnG1005" transform="matrix(1.0,0.0,0.0,1.0,375.11290322580646,72.0)" opacity="1.0"><path id="ProcessOnPath1006" d="M16.666666666666668 0.0L172.33333333333334 0.0C194.55555555555554 0.0 194.55555555555554 50.0 172.33333333333334 50.0L16.666666666666668 50.0C-5.555555555555556 50.0 -5.555555555555556 0.0 16.666666666666668 0.0Z" stroke="#171717" stroke-width="1.0" stroke-dasharray="none" opacity="1.0" fill="#ffffff"/><g id="ProcessOnG1007" transform="matrix(1.0,0.0,0.0,1.0,10.0,8.75)"><text id="ProcessOnText1008" fill="#000000" font-size="13" x="83.5" y="13.325" font-family="微软雅黑" font-weight="normal" font-style="normal" text-decoration="none" family="微软雅黑" text-anchor="middle" size="13">47 Recruits via local </text><text id="ProcessOnText1009" fill="#000000" font-size="13" x="83.5" y="29.575" font-family="微软雅黑" font-weight="normal" font-style="normal" text-decoration="none" family="微软雅黑" text-anchor="middle" size="13">institutions enrolled</text></g></g><g id="ProcessOnG1010"><path id="ProcessOnPath1011" d="M469.61290322580646 122.0L469.61290322580646 207.0" stroke="#171717" stroke-width="1.0" stroke-dasharray="none" fill="none"/></g><g id="ProcessOnG1012" transform="matrix(1.0,0.0,0.0,1.0,581.2425173053432,125.0)" opacity="1.0"><path id="ProcessOnPath1013" d="M0.0 0.0L320.0 0.0L320.0 106.0L0.0 106.0Z" stroke="#171717" stroke-width="1.0" stroke-dasharray="5.0 2.0" opacity="1.0" fill="#ffffff"/><g id="ProcessOnG1014" transform="matrix(1.0,0.0,0.0,1.0,10.0,4.25)"><text id="ProcessOnText1015" fill="#000000" font-size="13" x="0.0" y="13.325" font-family="微软雅黑" font-weight="normal" font-style="normal" text-decoration="none" family="微软雅黑" text-anchor="start" size="13">Enrollment Criterions</text><text id="ProcessOnText1016" fill="#000000" font-size="13" x="0.0" y="29.575" font-family="微软雅黑" font-weight="normal" font-style="normal" text-decoration="none" family="微软雅黑" text-anchor="start" size="13">1. Without using antibiotic in recent two moths.</text><text id="ProcessOnText1017" fill="#000000" font-size="13" x="0.0" y="45.825" font-family="微软雅黑" font-weight="normal" font-style="normal" text-decoration="none" family="微软雅黑" text-anchor="start" size="13">2. Without others hypertension, diabetes mellitu</text><text id="ProcessOnText1018" fill="#000000" font-size="13" x="0.0" y="62.075" font-family="微软雅黑" font-weight="normal" font-style="normal" text-decoration="none" family="微软雅黑" text-anchor="start" size="13">s, Intestinal disease.</text><text id="ProcessOnText1019" fill="#000000" font-size="13" x="0.0" y="78.325" font-family="微软雅黑" font-weight="normal" font-style="normal" text-decoration="none" family="微软雅黑" text-anchor="start" size="13">3. BMI less than 30 kg/m2 . </text><text id="ProcessOnText1020" fill="#000000" font-size="13" x="0.0" y="94.575" font-family="微软雅黑" font-weight="normal" font-style="normal" text-decoration="none" family="微软雅黑" text-anchor="start" size="13">4. Finished the study </text></g></g><g id="ProcessOnG1021"><path id="ProcessOnPath1022" d="M790.0 260.5L162.0 260.5" stroke="#323232" stroke-width="1.0" stroke-dasharray="none" fill="none"/></g><g id="ProcessOnG1023" transform="matrix(1.0,0.0,0.0,1.0,69.0,322.0)" opacity="1.0"><path id="ProcessOnPath1024" d="M0.0 0.0L188.0 0.0L188.0 71.79000000000002L0.0 71.79000000000002Z" stroke="#323232" stroke-width="1.0" stroke-dasharray="none" opacity="1.0" fill="#ffffff"/><g id="ProcessOnG1025" transform="matrix(1.0,0.0,0.0,1.0,10.0,18.39500000000001)"><text id="ProcessOnText1026" fill="#000000" font-size="14" x="83.0" y="14.350000000000001" font-family="微软雅黑" font-weight="bold" font-style="normal" text-decoration="none" family="微软雅黑" text-anchor="middle" size="14">Before intervention</text><text id="ProcessOnText1027" fill="#000000" font-size="14" x="83.0" y="31.85" font-family="微软雅黑" font-weight="bold" font-style="normal" text-decoration="none" family="微软雅黑" text-anchor="middle" size="14">normal calorie intake</text></g></g><g id="ProcessOnG1028" transform="matrix(1.0,0.0,0.0,1.0,349.2258064516129,288.0)" opacity="1.0"><path id="ProcessOnPath1029" d="M0.0 0.0L240.77419354838707 0.0L240.77419354838707 127.0L0.0 127.0Z" stroke="#323232" stroke-width="1.0" stroke-dasharray="none" opacity="1.0" fill="#ffffff"/><g id="ProcessOnG1030" transform="matrix(1.0,0.0,0.0,1.0,10.0,7.25)"><text id="ProcessOnText1031" fill="#000000" font-size="15" x="109.38709677419354" y="15.375" font-family="微软雅黑" font-weight="bold" font-style="normal" text-decoration="none" family="微软雅黑" text-anchor="middle" size="15">Calorie Restrition (50%)</text><text id="ProcessOnText1032" fill="#000000" font-size="15" x="109.38709677419354" y="34.125" font-family="微软雅黑" font-weight="bold" font-style="normal" text-decoration="none" family="微软雅黑" text-anchor="middle" size="15">F:1000kcal;M:1200kcal</text><text id="ProcessOnText1033" fill="#000000" font-size="15" x="109.38709677419354" y="52.875" font-family="微软雅黑" font-weight="bold" font-style="normal" text-decoration="none" family="微软雅黑" text-anchor="middle" size="15"></text><text id="ProcessOnText1034" fill="#000000" font-size="15" x="109.38709677419354" y="71.625" font-family="微软雅黑" font-weight="bold" font-style="normal" text-decoration="none" family="微软雅黑" text-anchor="middle" size="15">Protein: 35%~45%</text><text id="ProcessOnText1035" fill="#000000" font-size="15" x="109.38709677419354" y="90.375" font-family="微软雅黑" font-weight="bold" font-style="normal" text-decoration="none" family="微软雅黑" text-anchor="middle" size="15">Fat: 10%~20%</text><text id="ProcessOnText1036" fill="#000000" font-size="15" x="109.38709677419354" y="109.125" font-family="微软雅黑" font-weight="bold" font-style="normal" text-decoration="none" family="微软雅黑" text-anchor="middle" size="15">Carbohydrates: 30~40%</text></g></g><g id="ProcessOnG1037" transform="matrix(1.0,0.0,0.0,1.0,683.0249208252274,320.49999999999994)" opacity="1.0"><path id="ProcessOnPath1038" d="M0.0 0.0L212.4351929602317 0.0L212.4351929602317 74.79000000000008L0.0 74.79000000000008Z" stroke="#323232" stroke-width="1.0" stroke-dasharray="none" opacity="1.0" fill="#ffffff"/><g id="ProcessOnG1039" transform="matrix(1.0,0.0,0.0,1.0,10.0,17.39500000000004)"><text id="ProcessOnText1040" fill="#000000" font-size="16" x="95.21759648011584" y="16.4" font-family="微软雅黑" font-weight="bold" font-style="normal" text-decoration="none" family="微软雅黑" text-anchor="middle" size="16">After intervention</text><text id="ProcessOnText1041" fill="#000000" font-size="16" x="95.21759648011584" y="36.4" font-family="微软雅黑" font-weight="bold" font-style="normal" text-decoration="none" family="微软雅黑" text-anchor="middle" size="16">normal calorie intake</text></g></g><g id="ProcessOnG1042"><path id="ProcessOnPath1043" d="M789.0 262.0L789.5 322.0" stroke="#323232" stroke-width="1.0" stroke-dasharray="none" fill="none"/></g><g id="ProcessOnG1044"><path id="ProcessOnPath1045" d="M469.61290322580646 201.0L469.61290322580646 288.0" stroke="#323232" stroke-width="1.0" stroke-dasharray="none" fill="none"/></g><g id="ProcessOnG1046" transform="matrix(1.0,0.0,0.0,1.0,262.0,335.145)" opacity="1.0"><path id="ProcessOnPath1047" d="M0.0 13.200000000000001L61.0 13.200000000000001L61.0 0.0L81.0 20.0L61.0 40.0L61.0 26.8L0.0 26.8L0.0 13.200000000000001Z" stroke="#323232" stroke-width="1.0" stroke-dasharray="none" opacity="1.0" fill="#ffffff"/></g><g id="ProcessOnG1048" transform="matrix(1.0,0.0,0.0,1.0,599.0,334.31749999999994)" opacity="1.0"><path id="ProcessOnPath1049" d="M0.0 13.746150000000029L52.17249999999996 13.746150000000029L52.17249999999996 0.0L73.0 20.827500000000043L52.17249999999996 41.655000000000086L52.17249999999996 27.908850000000058L0.0 27.908850000000058L0.0 13.746150000000029Z" stroke="#323232" stroke-width="1.0" stroke-dasharray="none" opacity="1.0" fill="#ffffff"/></g><g id="ProcessOnG1050" transform="matrix(1.0,0.0,0.0,1.0,113.0,519.0)" opacity="1.0"><path id="ProcessOnPath1051" d="M0.0 0.0L100.0 0.0L100.0 41.0L0.0 41.0Z" stroke="#323232" stroke-width="1.0" stroke-dasharray="none" opacity="1.0" fill="#ffffff"/><g id="ProcessOnG1052" transform="matrix(1.0,0.0,0.0,1.0,10.0,12.375)"><text id="ProcessOnText1053" fill="#000000" font-size="13" x="39.0" y="13.325" font-family="微软雅黑" font-weight="normal" font-style="normal" text-decoration="none" family="微软雅黑" text-anchor="middle" size="13">n=47</text></g></g><g id="ProcessOnG1054" transform="matrix(1.0,0.0,0.0,1.0,204.0,435.5232558139535)" opacity="1.0"><path id="ProcessOnPath1055" d="M0.0 0.0L185.13709677419354 0.0L185.13709677419354 67.945L0.0 67.945Z" stroke="#323232" stroke-width="1.0" stroke-dasharray="5.0 2.0" opacity="1.0" fill="#ffffff"/><g id="ProcessOnG1056" transform="matrix(1.0,0.0,0.0,1.0,10.0,1.4724999999999966)"><text id="ProcessOnText1057" fill="#000000" font-size="13" x="0.0" y="13.325" font-family="微软雅黑" font-weight="normal" font-style="normal" text-decoration="none" family="微软雅黑" text-anchor="start" size="13">Collect information</text><text id="ProcessOnText1058" fill="#000000" font-size="13" x="0.0" y="29.575" font-family="微软雅黑" font-weight="normal" font-style="normal" text-decoration="none" family="微软雅黑" text-anchor="start" size="13">1. 47 weight(every day)</text><text id="ProcessOnText1059" fill="#000000" font-size="13" x="0.0" y="45.825" font-family="微软雅黑" font-weight="normal" font-style="normal" text-decoration="none" family="微软雅黑" text-anchor="start" size="13">2. 42 blood(amino acids)</text><text id="ProcessOnText1060" fill="#000000" font-size="13" x="0.0" y="62.075" font-family="微软雅黑" font-weight="normal" font-style="normal" text-decoration="none" family="微软雅黑" text-anchor="start" size="13">3. 47 facel(metagenomic)</text></g></g><g id="ProcessOnG1061" transform="matrix(1.0,0.0,0.0,1.0,186.0,168.0)" opacity="1.0"><path id="ProcessOnPath1062" d="M0.0 0.0L157.0 0.0L157.0 66.0L0.0 66.0Z" stroke="#171717" stroke-width="1.0" stroke-dasharray="none" opacity="1.0" fill="#ffffff"/><g id="ProcessOnG1063" transform="matrix(1.0,0.0,0.0,1.0,10.0,0.5)"><text id="ProcessOnText1064" fill="#000000" font-size="13" x="0.0" y="13.325" font-family="微软雅黑" font-weight="normal" font-style="normal" text-decoration="none" family="微软雅黑" text-anchor="start" size="13">Collect information</text><text id="ProcessOnText1065" fill="#000000" font-size="13" x="0.0" y="29.575" font-family="微软雅黑" font-weight="normal" font-style="normal" text-decoration="none" family="微软雅黑" text-anchor="start" size="13">1. Weight</text><text id="ProcessOnText1066" fill="#000000" font-size="13" x="0.0" y="45.825" font-family="微软雅黑" font-weight="normal" font-style="normal" text-decoration="none" family="微软雅黑" text-anchor="start" size="13">2. Blood samples</text><text id="ProcessOnText1067" fill="#000000" font-size="13" x="0.0" y="62.075" font-family="微软雅黑" font-weight="normal" font-style="normal" text-decoration="none" family="微软雅黑" text-anchor="start" size="13">3. Facel samples</text></g></g><g id="ProcessOnG1068"><path id="ProcessOnPath1069" d="M469.61290322580646 415.0L469.61290322580646 505.3819660112501" stroke="#323232" stroke-width="1.0" stroke-dasharray="none" fill="none" marker-end="url(#ProcessOnMarker1070)"/></g><g id="ProcessOnG1072" transform="matrix(6.123233995736766E-17,1.0,-1.0,6.123233995736766E-17,472.1453859204633,426.3450173053431)" opacity="1.0"><path id="ProcessOnPath1073" d="M0.0 0.0L73.7549653893137 0.0L73.7549653893137 31.31L0.0 31.31Z" stroke="none" stroke-width="0.0" stroke-dasharray="none" opacity="1.0" fill="none"/><g id="ProcessOnG1074" transform="matrix(1.0,0.0,0.0,1.0,0.0,6.904999999999999)"><text id="ProcessOnText1075" fill="#000000" font-size="14" x="35.87748269465685" y="14.350000000000001" font-family="微软雅黑" font-weight="bold" font-style="normal" text-decoration="none" family="微软雅黑" text-anchor="middle" size="14">3 weeks</text></g></g><g id="ProcessOnG1076" transform="matrix(1.0,0.0,0.0,1.0,419.61290322580646,519.0)" opacity="1.0"><path id="ProcessOnPath1077" d="M0.0 0.0L100.0 0.0L100.0 41.0L0.0 41.0Z" stroke="#323232" stroke-width="1.0" stroke-dasharray="none" opacity="1.0" fill="#ffffff"/><g id="ProcessOnG1078" transform="matrix(1.0,0.0,0.0,1.0,10.0,12.375)"><text id="ProcessOnText1079" fill="#000000" font-size="13" x="39.0" y="13.325" font-family="微软雅黑" font-weight="normal" font-style="normal" text-decoration="none" family="微软雅黑" text-anchor="middle" size="13">n=47</text></g></g><g id="ProcessOnG1080" transform="matrix(1.0,0.0,0.0,1.0,509.0,437.29)" opacity="1.0"><path id="ProcessOnPath1081" d="M0.0 0.0L178.5648070397683 0.0L178.5648070397683 64.41151162790692L0.0 64.41151162790692Z" stroke="#323232" stroke-width="1.0" stroke-dasharray="5.0 2.0" opacity="1.0" fill="#ffffff"/><g id="ProcessOnG1082" transform="matrix(1.0,0.0,0.0,1.0,10.0,-0.2942441860465408)"><text id="ProcessOnText1083" fill="#000000" font-size="13" x="0.0" y="13.325" font-family="微软雅黑" font-weight="normal" font-style="normal" text-decoration="none" family="微软雅黑" text-anchor="start" size="13">Collect information</text><text id="ProcessOnText1084" fill="#000000" font-size="13" x="0.0" y="29.575" font-family="微软雅黑" font-weight="normal" font-style="normal" text-decoration="none" family="微软雅黑" text-anchor="start" size="13">1. 46 weight(every day)</text><text id="ProcessOnText1085" fill="#000000" font-size="13" x="0.0" y="45.825" font-family="微软雅黑" font-weight="normal" font-style="normal" text-decoration="none" family="微软雅黑" text-anchor="start" size="13">2. 43 blood(amino acids)</text><text id="ProcessOnText1086" fill="#000000" font-size="13" x="0.0" y="62.075" font-family="微软雅黑" font-weight="normal" font-style="normal" text-decoration="none" family="微软雅黑" text-anchor="start" size="13">3. 47 facel(metagenomic)</text></g></g><g id="ProcessOnG1087"><path id="ProcessOnPath1088" d="M471.0 469.0L495.3831247817291 469.318107259813" stroke="#323232" stroke-width="1.0" stroke-dasharray="none" fill="none" marker-end="url(#ProcessOnMarker1089)"/></g><g id="ProcessOnG1091" transform="matrix(6.123233995736766E-17,1.0,-1.0,6.123233995736766E-17,777.775,426.3450173053431)" opacity="1.0"><path id="ProcessOnPath1092" d="M0.0 0.0L73.7549653893137 0.0L73.7549653893137 31.31L0.0 31.31Z" stroke="none" stroke-width="0.0" stroke-dasharray="none" opacity="1.0" fill="none"/><g id="ProcessOnG1093" transform="matrix(1.0,0.0,0.0,1.0,0.0,6.904999999999999)"><text id="ProcessOnText1094" fill="#000000" font-size="14" x="35.87748269465685" y="14.350000000000001" font-family="微软雅黑" font-weight="bold" font-style="normal" text-decoration="none" family="微软雅黑" text-anchor="middle" size="14">2 weeks</text></g></g><g id="ProcessOnG1095" transform="matrix(1.0,0.0,0.0,1.0,739.2425173053432,519.0)" opacity="1.0"><path id="ProcessOnPath1096" d="M0.0 0.0L100.0 0.0L100.0 41.0L0.0 41.0Z" stroke="#323232" stroke-width="1.0" stroke-dasharray="none" opacity="1.0" fill="#ffffff"/><g id="ProcessOnG1097" transform="matrix(1.0,0.0,0.0,1.0,10.0,12.375)"><text id="ProcessOnText1098" fill="#000000" font-size="13" x="39.0" y="13.325" font-family="微软雅黑" font-weight="normal" font-style="normal" text-decoration="none" family="微软雅黑" text-anchor="middle" size="13">n=47</text></g></g><g id="ProcessOnG1099" transform="matrix(1.0,0.0,0.0,1.0,829.2425173053432,433.25651162790695)" opacity="1.0"><path id="ProcessOnPath1100" d="M0.0 0.0L178.0 0.0L178.0 68.445L0.0 68.445Z" stroke="#323232" stroke-width="1.0" stroke-dasharray="5.0 2.0" opacity="1.0" fill="#ffffff"/><g id="ProcessOnG1101" transform="matrix(1.0,0.0,0.0,1.0,10.0,1.7224999999999966)"><text id="ProcessOnText1102" fill="#000000" font-size="13" x="0.0" y="13.325" font-family="微软雅黑" font-weight="normal" font-style="normal" text-decoration="none" family="微软雅黑" text-anchor="start" size="13">Collect information</text><text id="ProcessOnText1103" fill="#000000" font-size="13" x="0.0" y="29.575" font-family="微软雅黑" font-weight="normal" font-style="normal" text-decoration="none" family="微软雅黑" text-anchor="start" size="13">1. 42 weight(every day)</text><text id="ProcessOnText1104" fill="#000000" font-size="13" x="0.0" y="45.825" font-family="微软雅黑" font-weight="normal" font-style="normal" text-decoration="none" family="微软雅黑" text-anchor="start" size="13">2. 44 blood(amino acids)</text><text id="ProcessOnText1105" fill="#000000" font-size="13" x="0.0" y="62.075" font-family="微软雅黑" font-weight="normal" font-style="normal" text-decoration="none" family="微软雅黑" text-anchor="start" size="13">3. 47 facel(metagenomic)</text></g></g><g id="ProcessOnG1106"><path id="ProcessOnPath1107" d="M788.0 468.0L813.3819660112501 468.0" stroke="#323232" stroke-width="1.0" stroke-dasharray="none" fill="none" marker-end="url(#ProcessOnMarker1108)"/></g><g id="ProcessOnG1110"><path id="ProcessOnPath1111" d="M788.0 591.5L219.0 591.5" stroke="#323232" stroke-width="1.0" stroke-dasharray="none" fill="none"/></g><g id="ProcessOnG1112"><path id="ProcessOnPath1113" d="M789.2425173053432 560.0L789.2425173053432 592.0" stroke="#323232" stroke-width="1.0" stroke-dasharray="none" fill="none"/></g><g id="ProcessOnG1114" transform="matrix(1.0,0.0,0.0,1.0,376.61290322580646,636.0)" opacity="1.0"><path id="ProcessOnPath1115" d="M19.0 0.0L167.0 0.0C192.33333333333334 0.0 192.33333333333334 57.0 167.0 57.0L19.0 57.0C-6.333333333333333 57.0 -6.333333333333333 0.0 19.0 0.0Z" stroke="#323232" stroke-width="1.0" stroke-dasharray="none" opacity="1.0" fill="#ffffff"/><g id="ProcessOnG1116" transform="matrix(1.0,0.0,0.0,1.0,10.0,8.5)"><text id="ProcessOnText1117" fill="#000000" font-size="16" x="82.0" y="16.4" font-family="微软雅黑" font-weight="bold" font-style="normal" text-decoration="none" family="微软雅黑" text-anchor="middle" size="16">n=47 completed </text><text id="ProcessOnText1118" fill="#000000" font-size="16" x="82.0" y="36.4" font-family="微软雅黑" font-weight="bold" font-style="normal" text-decoration="none" family="微软雅黑" text-anchor="middle" size="16">program</text></g></g><g id="ProcessOnG1119"><path id="ProcessOnPath1120" d="M469.61290322580646 619.3819660112501L469.61290322580646 560.0" stroke="#323232" stroke-width="1.0" stroke-dasharray="none" fill="none" marker-start="url(#ProcessOnMarker1121)"/></g><g id="ProcessOnG1123"><path id="ProcessOnPath1124" d="M163.0 560.0L163.0 592.0L220.25 592.0" stroke="#323232" stroke-width="1.0" stroke-dasharray="none" fill="none"/></g><g id="ProcessOnG1125"><path id="ProcessOnPath1126" d="M581.2425173053432 178.0L526.6212586526716 178.0L526.6212586526716 178.0L485.6180339887499 178.0" stroke="#171717" stroke-width="1.0" stroke-dasharray="none" fill="none" marker-end="url(#ProcessOnMarker1127)"/></g><g id="ProcessOnG1129"><path id="ProcessOnPath1130" d="M162.25 259.0L163.0 322.0" stroke="#323232" stroke-width="1.0" stroke-dasharray="none" fill="none"/></g><g id="ProcessOnG1131"><path id="ProcessOnPath1132" d="M163.0 393.79L163.0 505.3819660112501" stroke="#323232" stroke-width="1.0" stroke-dasharray="none" fill="none" marker-end="url(#ProcessOnMarker1133)"/></g><g id="ProcessOnG1135"><path id="ProcessOnPath1136" d="M161.0 469.0L190.38287099305188 469.3387611424523" stroke="#323232" stroke-width="1.0" stroke-dasharray="none" fill="none" marker-end="url(#ProcessOnMarker1137)"/></g><g id="ProcessOnG1139"><path id="ProcessOnPath1140" d="M789.2425173053432 395.29L789.2425173053432 505.3819660112501" stroke="#323232" stroke-width="1.0" stroke-dasharray="none" fill="none" marker-end="url(#ProcessOnMarker1141)"/></g><g id="ProcessOnG1143" transform="matrix(6.123233995736766E-17,1.0,-1.0,6.123233995736766E-17,159.14538592046333,423.3450173053431)" opacity="1.0"><path id="ProcessOnPath1144" d="M0.0 0.0L73.7549653893137 0.0L73.7549653893137 31.31L0.0 31.31Z" stroke="none" stroke-width="0.0" stroke-dasharray="none" opacity="1.0" fill="none"/><g id="ProcessOnG1145" transform="matrix(1.0,0.0,0.0,1.0,0.0,6.904999999999999)"><text id="ProcessOnText1146" fill="#000000" font-size="14" x="35.87748269465685" y="14.350000000000001" font-family="微软雅黑" font-weight="bold" font-style="normal" text-decoration="none" family="微软雅黑" text-anchor="middle" size="14">1 weeks</text></g></g><g id="ProcessOnG1147"><path id="ProcessOnPath1148" d="M343.0 201.0L454.3819660112501 201.0" stroke="#171717" stroke-width="1.0" stroke-dasharray="none" fill="none" marker-end="url(#ProcessOnMarker1149)"/></g></g></g></svg>